<svg id="Google" xmlns="http://www.w3.org/2000/svg" xmlns:xlink="http://www.w3.org/1999/xlink" width="123.167" height="125.732" viewBox="0 0 123.167 125.732">
  <defs>
    <clipPath id="clip-path">
      <path id="Path_358" data-name="Path 358" d="M1060.448,1.417v24.9s23.994-.032,33.763-.032c-5.292,16.14-13.515,24.93-33.763,24.93-20.486,0-36.48-16.721-36.48-37.346s15.994-37.346,36.48-37.346c10.834,0,17.831,3.833,24.248,9.175,5.135-5.171,4.707-5.908,17.777-18.333A62,62,0,0,0,1060.448-49C1025.958-49,998-20.854,998,13.866s27.958,62.866,62.448,62.866c51.553,0,64.154-45.189,59.977-75.315Z" transform="translate(-998 49)" fill="#e4e4e4" clip-rule="evenodd"/>
    </clipPath>
    <clipPath id="clip-path-2">
      <path id="Path_357" data-name="Path 357" d="M-104,976.55H3103.46V-309H-104Z" transform="translate(104 309)" fill="#e4e4e4"/>
    </clipPath>
  </defs>
  <g id="Group_666" data-name="Group 666" clip-path="url(#clip-path)">
    <g id="Group_665" data-name="Group 665" transform="translate(-2827.697 -667.152)" clip-path="url(#clip-path-2)">
      <path id="Path_356" data-name="Path 356" d="M993-54h148.826V97.392H993Z" transform="translate(1821.867 708.322)" fill="#e4e4e4"/>
    </g>
  </g>
</svg>
