<svg id="Instagram" xmlns="http://www.w3.org/2000/svg" width="112" height="112" viewBox="0 0 112 112">
  <path id="color" d="M33.32,2H78.68A31.343,31.343,0,0,1,110,33.32V78.68A31.32,31.32,0,0,1,78.68,110H33.32A31.343,31.343,0,0,1,2,78.68V33.32A31.32,31.32,0,0,1,33.32,2M32.24,12.8A19.44,19.44,0,0,0,12.8,32.24V79.76A19.428,19.428,0,0,0,32.24,99.2H79.76A19.44,19.44,0,0,0,99.2,79.76V32.24A19.428,19.428,0,0,0,79.76,12.8H32.24m52.11,8.1a6.75,6.75,0,1,1-6.75,6.75,6.75,6.75,0,0,1,6.75-6.75M56,29A27,27,0,1,1,29,56,27,27,0,0,1,56,29m0,10.8A16.2,16.2,0,1,0,72.2,56,16.2,16.2,0,0,0,56,39.8Z" transform="translate(0 0)" fill="#e4e4e4"/>
  <rect id="Boundary" width="112" height="112" fill="none"/>
</svg>
