<svg xmlns="http://www.w3.org/2000/svg" width="118.268" height="118.268" viewBox="0 0 118.268 118.268">
  <path id="iconmonstr-linkedin-3" d="M93.629,0H24.639A24.642,24.642,0,0,0,0,24.639V93.629a24.642,24.642,0,0,0,24.639,24.639H93.629a24.639,24.639,0,0,0,24.639-24.639V24.639A24.639,24.639,0,0,0,93.629,0ZM39.423,93.629H24.639V39.423H39.423ZM32.031,33.174a8.693,8.693,0,1,1,8.624-8.693A8.661,8.661,0,0,1,32.031,33.174ZM98.556,93.629H83.773V66.013c0-16.6-19.711-15.34-19.711,0V93.629H49.278V39.423H64.062v8.7c6.879-12.743,34.495-13.685,34.495,12.2Z" fill="#e4e4e4"/>
</svg>
